<?xml version="1.0" encoding="UTF-8" standalone="no"?><!DOCTYPE svg PUBLIC "-//W3C//DTD SVG 1.1//EN" "http://www.w3.org/Graphics/SVG/1.1/DTD/svg11.dtd"><svg width="100%" height="100%" viewBox="0 0 2617 246" version="1.1" xmlns="http://www.w3.org/2000/svg" xmlns:xlink="http://www.w3.org/1999/xlink" xml:space="preserve" xmlns:serif="http://www.serif.com/" style="fill-rule:evenodd;clip-rule:evenodd;stroke-linejoin:round;stroke-miterlimit:2;"><rect id="Page-2" serif:id="Page 2" x="-484.95" y="-1040.413" width="3507.875" height="2480.317" style="fill:none;"/><g id="Layer-1" serif:id="Layer 1"><g><path d="M101.117,187.362c-8.492,11.979 -11.149,15.434 -17.844,21.931c-8.551,7.435 -17.843,11.896 -27.137,11.896c-10.781,0 -20.075,-7.804 -20.075,-23.792c0,-15.984 7.805,-34.201 17.471,-47.585c15.614,-22.305 38.291,-40.149 54.649,-40.149c6.69,0 11.524,5.205 11.524,15.614c0,21.191 -7.435,43.866 -18.588,62.084m176.203,-78.442c6.32,0 10.781,2.605 10.781,7.435c0,17.844 -26.395,34.944 -66.171,43.123c11.896,-30.11 37.546,-50.558 55.39,-50.558m46.468,9.296c0,-20.448 -16.356,-31.97 -44.61,-31.97c-38.624,0 -90.589,37.025 -100.263,89.407c-14.084,20.801 -28.839,29.554 -43.598,29.554c-3.345,0 -6.319,0 -8.922,-0.743c18.588,-22.306 30.855,-50.932 30.855,-76.955c0,-26.392 -17.099,-41.263 -42.379,-41.263c-19.703,0 -39.778,11.522 -58.364,30.484c7.805,-20.075 16.728,-41.266 24.163,-57.624c15.241,-25.278 20.818,-39.031 20.818,-47.21c0,-6.692 -5.204,-11.896 -13.383,-11.896c-8.179,0 -18.216,5.204 -23.422,17.099c-7.434,17.471 -44.238,106.692 -50.557,123.421c-8.179,20.818 -14.128,38.662 -14.128,57.25c0,30.11 23.048,47.585 53.16,47.585c18.588,0 37.176,-8.179 53.533,-21.191c7.434,1.86 15.984,2.974 24.907,2.974c17.486,0 33.548,-5.316 48.131,-16.232c6.649,22.681 26.887,34.82 57.811,34.82c39.778,0 69.89,-26.393 69.89,-39.406c0,-8.179 -5.949,-13.754 -13.754,-13.754c-5.205,0 -10.037,3.345 -15.986,10.411c-9.294,10.779 -20.818,17.469 -34.944,17.469c-15.614,0 -27.138,-10.036 -27.138,-28.624c0,-2.974 0,-5.947 0.372,-8.551c61.339,-8.922 107.807,-36.432 107.807,-65.056" style="fill:none;fill-rule:nonzero;"/><g><path d="M470.004,128.06l-39.977,0l0,-12.412l93.565,0l0,12.412l-39.977,0l0,106.666l-13.611,0l0,-106.666Z" style="fill:none;fill-rule:nonzero;"/><path d="M603.051,176.376c17.863,0 30.622,-9.187 30.622,-24.497l0,-0.342c0,-14.632 -11.228,-23.482 -30.453,-23.482l-36.746,0l0,48.321l36.578,0Zm-50.016,-60.733l51.21,0c14.627,0 26.365,4.42 33.852,11.912c5.782,5.782 9.187,14.117 9.187,23.471l0,0.337c0,19.741 -13.611,31.311 -32.327,34.715l36.578,48.648l-16.5,0l-34.536,-46.275l-34.026,0l0,46.275l-13.438,0l0,-119.083Z" style="fill:none;fill-rule:nonzero;"/><path d="M757.532,191.008l-27.049,-60.57l-27.218,60.57l54.267,0Zm-33.174,-76.218l12.585,0l54.272,119.935l-14.459,0l-13.953,-31.469l-64.816,0l-14.117,31.469l-13.78,0l54.267,-119.935Z" style="fill:none;fill-rule:nonzero;"/><rect x="820.152" y="115.643" width="13.438" height="119.083" style="fill:none;"/><path d="M872.725,115.643l12.591,0l75.018,95.438l0,-95.438l13.101,0l0,119.083l-10.718,0l-76.891,-97.648l0,97.648l-13.101,0l0,-119.083Z" style="fill:none;fill-rule:nonzero;"/><rect x="1012.575" y="115.643" width="13.438" height="119.083" style="fill:none;"/><path d="M1065.149,115.643l12.591,0l75.018,95.438l0,-95.438l13.101,0l0,119.083l-10.718,0l-76.891,-97.648l0,97.648l-13.101,0l0,-119.083Z" style="fill:none;fill-rule:nonzero;"/><path d="M1198.536,173.477l0,-0.337c0,-32.658 23.987,-61.591 59.713,-61.591c20.073,0 32.49,5.788 44.402,15.827l-8.676,10.207c-9.187,-7.997 -19.394,-13.606 -36.236,-13.606c-26.371,0 -45.254,22.277 -45.254,48.821l0,0.342c0,28.412 18.205,49.51 47.122,49.51c13.611,0 26.202,-5.283 34.368,-11.912l0,-29.606l-36.236,0l0,-12.075l49.163,0l0,47.469c-11.054,9.865 -27.728,18.199 -47.801,18.199c-37.43,0 -60.565,-27.223 -60.565,-61.249" style="fill:none;fill-rule:nonzero;"/><path d="M1452.207,139.114l0,-0.337c0,-9.529 -7.145,-16.505 -16.842,-16.505c-10.718,0 -18.031,7.492 -18.031,17.179l0,0.342c0,6.977 2.889,12.249 11.907,21.951c15.143,-5.109 22.966,-12.417 22.966,-22.63m3.573,68.052l-31.811,-32.837c-15.827,5.788 -22.798,15.49 -22.798,25.518l0,0.337c0,12.764 10.207,22.467 24.839,22.467c11.228,0 21.093,-5.961 29.769,-15.485m8.166,8.334c-10.886,11.744 -23.477,18.547 -38.956,18.547c-21.441,0 -37.43,-13.443 -37.43,-33.347l0,-0.337c0,-15.827 10.549,-27.223 28.754,-34.368c-8.171,-9.523 -11.907,-16.842 -11.907,-26.202l0,-0.342c0,-15.648 12.585,-28.238 31.469,-28.238c16.668,0 28.922,12.086 28.922,26.886l0,0.337c0,15.137 -10.723,24.839 -28.07,30.964l27.218,27.723c5.272,-7.655 10.039,-16.668 14.29,-26.534l11.06,5.109c-5.277,11.223 -10.718,21.425 -17.184,29.938l20.757,21.262l-10.207,7.829l-18.715,-19.225Z" style="fill:none;fill-rule:nonzero;"/><path d="M1565.645,173.477l0,-0.337c0,-33.689 26.186,-61.591 62.638,-61.591c22.472,0 35.915,7.661 48.306,18.889l-9.555,9.865c-10.439,-9.523 -22.119,-16.326 -38.93,-16.326c-27.428,0 -47.948,21.435 -47.948,48.821l0,0.342c0,27.56 20.699,49.158 47.948,49.158c16.989,0 28.138,-6.287 39.992,-17.179l9.202,8.681c-12.917,12.591 -27.076,20.925 -49.547,20.925c-35.741,0 -62.106,-27.049 -62.106,-61.249" style="fill:none;fill-rule:nonzero;"/><path d="M1815.842,173.477l0,-0.337c0,-27.049 -20.52,-49.163 -48.832,-49.163c-28.312,0 -48.485,21.772 -48.485,48.821l0,0.342c0,27.044 20.52,49.158 48.832,49.158c28.312,0 48.485,-21.772 48.485,-48.821m-111.827,0l0,-0.337c0,-32.837 25.655,-61.591 63.343,-61.591c37.693,0 62.996,28.417 62.996,61.249l0,0.342c0,32.832 -25.655,61.586 -63.343,61.586c-37.693,0 -62.996,-28.417 -62.996,-61.249" style="fill:none;fill-rule:nonzero;"/><path d="M1944.302,191.008l-28.138,-60.57l-28.312,60.57l56.45,0Zm-34.505,-76.218l13.096,0l56.445,119.935l-15.043,0l-14.511,-31.469l-67.415,0l-14.685,31.469l-14.332,0l56.445,-119.935Z" style="fill:none;fill-rule:nonzero;"/><path d="M2002.342,173.477l0,-0.337c0,-33.689 26.192,-61.591 62.638,-61.591c22.472,0 35.915,7.661 48.306,18.889l-9.555,9.865c-10.439,-9.523 -22.119,-16.326 -38.93,-16.326c-27.428,0 -47.948,21.435 -47.948,48.821l0,0.342c0,27.56 20.699,49.158 47.948,49.158c16.989,0 28.138,-6.287 39.992,-17.179l9.202,8.681c-12.917,12.591 -27.076,20.925 -49.547,20.925c-35.741,0 -62.106,-27.049 -62.106,-61.249" style="fill:none;fill-rule:nonzero;"/><path d="M2149.73,115.643l13.98,0l0,52.904l71.488,0l0,-52.904l13.974,0l0,119.083l-13.974,0l0,-53.583l-71.488,0l0,53.583l-13.98,0l0,-119.083Z" style="fill:none;fill-rule:nonzero;"/><rect x="2296.77" y="115.643" width="13.98" height="119.083" style="fill:none;"/><path d="M2358.345,115.643l13.096,0l78.033,95.438l0,-95.438l13.622,0l0,119.083l-11.144,0l-79.98,-97.648l0,97.648l-13.627,0l0,-119.083Z" style="fill:none;fill-rule:nonzero;"/><path d="M2503.97,173.477l0,-0.337c0,-32.658 24.945,-61.591 62.106,-61.591c20.878,0 33.8,5.788 46.18,15.827l-9.023,10.207c-9.55,-7.997 -20.173,-13.606 -37.688,-13.606c-27.428,0 -47.064,22.277 -47.064,48.821l0,0.342c0,28.412 18.926,49.51 49.011,49.51c14.159,0 27.249,-5.283 35.741,-11.912l0,-29.606l-37.688,0l0,-12.075l51.136,0l0,47.469c-11.502,9.865 -28.843,18.199 -49.721,18.199c-38.93,0 -62.99,-27.223 -62.99,-61.249" style="fill:none;fill-rule:nonzero;"/></g></g></g></svg>