<?xml version="1.0" encoding="UTF-8" standalone="no"?><!DOCTYPE svg PUBLIC "-//W3C//DTD SVG 1.1//EN" "http://www.w3.org/Graphics/SVG/1.1/DTD/svg11.dtd"><svg width="100%" height="100%" viewBox="0 0 1732 850" version="1.1" xmlns="http://www.w3.org/2000/svg" xmlns:xlink="http://www.w3.org/1999/xlink" xml:space="preserve" xmlns:serif="http://www.serif.com/" style="fill-rule:evenodd;clip-rule:evenodd;stroke-linejoin:round;stroke-miterlimit:2;"><rect id="Page-1" serif:id="Page 1" x="-827.977" y="-548.618" width="3507.875" height="2480.317" style="fill:none;"/><g id="Layer-1" serif:id="Layer 1"><path d="M720.615,466.275c-21.133,29.812 -27.746,38.408 -44.408,54.579c-21.279,18.504 -44.404,29.604 -67.533,29.604c-26.829,0 -49.958,-19.421 -49.958,-59.208c0,-39.779 19.425,-85.113 43.479,-118.421c38.858,-55.508 95.292,-99.917 136,-99.917c16.65,0 28.679,12.954 28.679,38.858c0,52.738 -18.504,109.167 -46.258,154.504m438.504,-195.212c15.729,0 26.829,6.483 26.829,18.504c0,44.408 -65.688,86.962 -164.675,107.317c29.604,-74.933 93.438,-125.821 137.846,-125.821m115.642,23.133c0,-50.887 -40.704,-79.562 -111.017,-79.562c-96.121,0 -225.442,92.142 -249.517,222.5c-35.05,51.767 -71.771,73.55 -108.5,73.55c-8.325,0 -15.725,0 -22.204,-1.85c46.258,-55.512 76.788,-126.75 76.788,-191.513c0,-65.679 -42.554,-102.688 -105.467,-102.688c-49.033,0 -98.992,28.675 -145.246,75.863c19.425,-49.958 41.629,-102.696 60.133,-143.404c37.929,-62.908 51.808,-97.133 51.808,-117.488c0,-16.654 -12.95,-29.604 -33.304,-29.604c-20.354,0 -45.333,12.95 -58.287,42.554c-18.5,43.479 -110.092,265.517 -125.817,307.15c-20.354,51.808 -35.158,96.217 -35.158,142.475c0,74.933 57.358,118.421 132.296,118.421c46.258,0 92.517,-20.354 133.225,-52.738c18.5,4.629 39.779,7.4 61.983,7.4c43.517,0 83.487,-13.229 119.779,-40.396c16.546,56.446 66.913,86.654 143.871,86.654c98.992,0 173.929,-65.683 173.929,-98.067c0,-20.354 -14.804,-34.229 -34.229,-34.229c-12.954,0 -24.979,8.325 -39.783,25.908c-23.129,26.825 -51.808,43.475 -86.963,43.475c-38.858,0 -67.537,-24.975 -67.537,-71.233c0,-7.4 0,-14.8 0.925,-21.279c152.65,-22.204 268.292,-90.667 268.292,-161.9" style="fill:none;fill-rule:nonzero;"/><g><path d="M31.658,763.062l-31.658,0l0,-9.829l74.096,0l0,9.829l-31.658,0l0,84.471l-10.779,0l0,-84.471Z" style="fill:none;fill-rule:nonzero;"/><path d="M137.021,801.327c14.146,0 24.25,-7.275 24.25,-19.4l0,-0.271c0,-11.587 -8.892,-18.596 -24.117,-18.596l-29.1,0l0,38.267l28.967,0Zm-39.608,-48.096l40.554,0c11.583,0 20.879,3.5 26.808,9.433c4.579,4.579 7.275,11.179 7.275,18.587l0,0.267c0,15.633 -10.779,24.796 -25.6,27.492l28.967,38.525l-13.067,0l-27.35,-36.646l-26.946,0l0,36.646l-10.642,0l0,-94.304Z" style="fill:none;fill-rule:nonzero;"/><path d="M259.358,812.915l-21.421,-47.967l-21.554,47.967l42.975,0Zm-26.271,-60.358l9.967,0l42.979,94.979l-11.45,0l-11.05,-24.921l-51.329,0l-11.179,24.921l-10.913,0l42.975,-94.979Z" style="fill:none;fill-rule:nonzero;"/><rect x="308.948" y="753.232" width="10.642" height="94.304" style="fill:none;"/><path d="M350.581,753.231l9.971,0l59.408,75.579l0,-75.579l10.375,0l0,94.304l-8.488,0l-60.892,-77.329l0,77.329l-10.375,0l0,-94.304Z" style="fill:none;fill-rule:nonzero;"/><rect x="461.331" y="753.232" width="10.642" height="94.304" style="fill:none;"/><path d="M502.966,753.231l9.971,0l59.408,75.579l0,-75.579l10.375,0l0,94.304l-8.488,0l-60.892,-77.329l0,77.329l-10.375,0l0,-94.304Z" style="fill:none;fill-rule:nonzero;"/><path d="M608.597,800.651l0,-0.267c0,-25.863 18.996,-48.775 47.288,-48.775c15.896,0 25.729,4.583 35.162,12.533l-6.871,8.083c-7.275,-6.333 -15.358,-10.775 -28.696,-10.775c-20.883,0 -35.837,17.642 -35.837,38.663l0,0.271c0,22.5 14.417,39.208 37.317,39.208c10.779,0 20.75,-4.183 27.217,-9.433l0,-23.446l-28.696,0l0,-9.562l38.933,0l0,37.592c-8.754,7.812 -21.958,14.412 -37.854,14.412c-29.642,0 -47.962,-21.558 -47.962,-48.504" style="fill:none;fill-rule:nonzero;"/><path d="M809.484,773.706l0,-0.267c0,-7.546 -5.658,-13.071 -13.337,-13.071c-8.488,0 -14.279,5.933 -14.279,13.604l0,0.271c0,5.525 2.288,9.7 9.429,17.383c11.992,-4.046 18.188,-9.833 18.188,-17.921m2.829,53.892l-25.192,-26.004c-12.533,4.583 -18.054,12.267 -18.054,20.208l0,0.267c0,10.108 8.083,17.792 19.671,17.792c8.892,0 16.704,-4.721 23.575,-12.262m6.467,6.6c-8.621,9.3 -18.592,14.688 -30.85,14.688c-16.979,0 -29.642,-10.646 -29.642,-26.408l0,-0.267c0,-12.533 8.354,-21.558 22.771,-27.217c-6.471,-7.542 -9.429,-13.337 -9.429,-20.75l0,-0.271c0,-12.392 9.967,-22.363 24.921,-22.363c13.2,0 22.904,9.571 22.904,21.292l0,0.267c0,11.987 -8.492,19.671 -22.229,24.521l21.554,21.954c4.175,-6.062 7.95,-13.2 11.317,-21.013l8.758,4.046c-4.179,8.887 -8.487,16.967 -13.608,23.708l16.438,16.838l-8.083,6.2l-14.821,-15.225Z" style="fill:none;fill-rule:nonzero;"/><path d="M899.318,800.651l0,-0.267c0,-26.679 20.737,-48.775 49.604,-48.775c17.796,0 28.442,6.067 38.254,14.958l-7.567,7.812c-8.267,-7.542 -17.517,-12.929 -30.829,-12.929c-21.721,0 -37.971,16.975 -37.971,38.663l0,0.271c0,21.825 16.392,38.929 37.971,38.929c13.454,0 22.283,-4.979 31.671,-13.604l7.288,6.875c-10.229,9.971 -21.442,16.571 -39.238,16.571c-28.304,0 -49.183,-21.421 -49.183,-48.504" style="fill:none;fill-rule:nonzero;"/><path d="M1097.454,800.651l0,-0.267c0,-21.421 -16.25,-38.933 -38.671,-38.933c-22.421,0 -38.396,17.242 -38.396,38.663l0,0.271c0,21.417 16.25,38.929 38.671,38.929c22.421,0 38.396,-17.242 38.396,-38.663m-88.558,0l0,-0.267c0,-26.004 20.317,-48.775 50.163,-48.775c29.85,0 49.887,22.504 49.887,48.504l0,0.271c0,26 -20.317,48.771 -50.162,48.771c-29.85,0 -49.887,-22.504 -49.887,-48.504" style="fill:none;fill-rule:nonzero;"/><path d="M1199.184,812.915l-22.283,-47.967l-22.421,47.967l44.704,0Zm-27.325,-60.358l10.371,0l44.7,94.979l-11.913,0l-11.492,-24.921l-53.388,0l-11.629,24.921l-11.35,0l44.7,-94.979Z" style="fill:none;fill-rule:nonzero;"/><path d="M1245.147,800.651l0,-0.267c0,-26.679 20.742,-48.775 49.604,-48.775c17.796,0 28.442,6.067 38.254,14.958l-7.567,7.812c-8.267,-7.542 -17.517,-12.929 -30.829,-12.929c-21.721,0 -37.971,16.975 -37.971,38.663l0,0.271c0,21.825 16.392,38.929 37.971,38.929c13.454,0 22.283,-4.979 31.671,-13.604l7.288,6.875c-10.229,9.971 -21.442,16.571 -39.237,16.571c-28.304,0 -49.183,-21.421 -49.183,-48.504" style="fill:none;fill-rule:nonzero;"/><path d="M1361.867,753.231l11.071,0l0,41.896l56.612,0l0,-41.896l11.067,0l0,94.304l-11.067,0l0,-42.433l-56.612,0l0,42.433l-11.071,0l0,-94.304Z" style="fill:none;fill-rule:nonzero;"/><rect x="1478.31" y="753.232" width="11.071" height="94.304" style="fill:none;"/><path d="M1527.072,753.231l10.371,0l61.796,75.579l0,-75.579l10.787,0l0,94.304l-8.825,0l-63.337,-77.329l0,77.329l-10.792,0l0,-94.304Z" style="fill:none;fill-rule:nonzero;"/><path d="M1642.396,800.651l0,-0.267c0,-25.863 19.754,-48.775 49.183,-48.775c16.533,0 26.767,4.583 36.571,12.533l-7.146,8.083c-7.562,-6.333 -15.975,-10.775 -29.846,-10.775c-21.721,0 -37.271,17.642 -37.271,38.663l0,0.271c0,22.5 14.988,39.208 38.812,39.208c11.213,0 21.579,-4.183 28.304,-9.433l0,-23.446l-29.846,0l0,-9.562l40.496,0l0,37.592c-9.108,7.812 -22.842,14.412 -39.375,14.412c-30.829,0 -49.883,-21.558 -49.883,-48.504" style="fill:none;fill-rule:nonzero;"/></g></g></svg>