<?xml version="1.0" encoding="UTF-8" standalone="no"?><!DOCTYPE svg PUBLIC "-//W3C//DTD SVG 1.1//EN" "http://www.w3.org/Graphics/SVG/1.1/DTD/svg11.dtd"><svg width="100%" height="100%" viewBox="0 0 896 94" version="1.1" xmlns="http://www.w3.org/2000/svg" xmlns:xlink="http://www.w3.org/1999/xlink" xml:space="preserve" xmlns:serif="http://www.serif.com/" style="fill-rule:evenodd;clip-rule:evenodd;stroke-linejoin:round;stroke-miterlimit:2;"><rect id="Page-1" serif:id="Page 1" x="-1250.456" y="-1505.9" width="3507.875" height="2480.317" style="fill:none;"/><g id="Layer-1" serif:id="Layer 1"><g><path d="M31.329,43.174l-23.154,0l0,25.879l24.621,0c11.108,0 18.021,-4.925 18.021,-13.096l0,-0.208c0,-7.971 -6.704,-12.575 -19.487,-12.575m15.404,-20.637c0,-7.233 -5.767,-11.946 -16.242,-11.946l-22.317,0l0,25.25l21.687,0c9.954,0 16.871,-4.508 16.871,-13.1l0,-0.204Zm-46.733,-19.383l31.225,0c8.383,0 14.983,2.408 19.175,6.492c3.038,3.142 4.713,7.025 4.713,11.737l0,0.208c0,9.529 -5.867,14.454 -11.629,16.971c8.696,2.617 15.717,7.65 15.717,17.708l0,0.208c0,12.575 -10.583,20.012 -26.612,20.012l-32.587,0l-0,-73.337Z" style="fill:none;fill-rule:nonzero;"/><rect x="75.032" y="-0" width="8.071" height="76.488" style="fill:none;"/><path d="M141.569,46.421c-0.838,-9.846 -6.496,-18.442 -17.287,-18.442c-9.429,0 -16.554,7.862 -17.604,18.442l34.892,0Zm-43.062,3.142l0,-0.204c0,-15.617 11.004,-28.192 25.983,-28.192c16.033,0 25.254,12.788 25.254,28.608c0,1.05 0,1.675 -0.104,2.621l-42.962,0c1.154,11.733 9.433,18.333 19.071,18.333c7.438,0 12.679,-3.037 17.079,-7.65l5.029,4.508c-5.45,6.079 -12.05,10.167 -22.317,10.167c-14.879,0 -27.033,-11.429 -27.033,-28.192" style="fill:none;fill-rule:nonzero;"/><path d="M207.695,49.457l0,-0.204c0,-12.467 -9.533,-20.85 -19.592,-20.85c-10.479,0 -19.071,7.75 -19.071,20.85l0,0.204c0,12.783 8.904,20.954 19.071,20.954c10.058,0 19.592,-8.479 19.592,-20.954m-46.942,0.104l0,-0.2c0,-17.708 12.887,-28.192 25.879,-28.192c10.058,0 16.558,5.454 20.75,11.525l0,-32.692l8.067,0l0,76.487l-8.067,0l0,-10.896c-4.404,6.496 -10.796,12.054 -20.75,12.054c-12.992,0 -25.879,-10.271 -25.879,-28.087" style="fill:none;fill-rule:nonzero;"/><path d="M277.277,49.457l0,-0.204c0,-12.467 -9.538,-20.85 -19.596,-20.85c-10.475,0 -19.067,7.75 -19.067,20.85l0,0.204c0,12.783 8.904,20.954 19.067,20.954c10.058,0 19.596,-8.479 19.596,-20.954m-46.942,0.104l0,-0.2c0,-17.708 12.892,-28.192 25.883,-28.192c10.058,0 16.55,5.454 20.742,11.525l0,-32.692l8.071,0l0,76.487l-8.071,0l0,-10.896c-4.396,6.496 -10.792,12.054 -20.742,12.054c-12.992,0 -25.883,-10.271 -25.883,-28.087" style="fill:none;fill-rule:nonzero;"/><path d="M343.612,22.325l8.592,0l-22.737,55.95c-4.608,11.213 -9.85,15.3 -18.021,15.3c-4.508,0 -7.858,-0.946 -11.525,-2.729l2.721,-6.387c2.621,1.358 5.033,1.988 8.487,1.988c4.821,0 7.858,-2.517 11.108,-10.167l-24.625,-53.954l8.908,0l19.696,45.158l17.396,-45.158Z" style="fill:none;fill-rule:nonzero;"/><path d="M364.994,22.325l8.071,0l0,9.433c3.558,-5.871 9.217,-10.587 18.542,-10.587c13.096,0 20.746,8.804 20.746,21.687l0,33.633l-8.067,0l0,-31.642c0,-10.058 -5.45,-16.35 -14.983,-16.35c-9.325,0 -16.238,6.812 -16.238,16.979l0,31.013l-8.071,0l0,-54.167Z" style="fill:none;fill-rule:nonzero;"/><path d="M462.345,3.151l53.021,0l0,7.546l-44.746,0l0,25.037l40.029,0l0,7.546l-40.029,0l0,25.667l45.267,0l0,7.546l-53.542,0l0,-73.342Z" style="fill:none;fill-rule:nonzero;"/><path d="M573.946,49.457l0,-0.204c0,-12.467 -9.533,-20.85 -19.592,-20.85c-10.479,0 -19.071,7.75 -19.071,20.85l0,0.204c0,12.783 8.904,20.954 19.071,20.954c10.058,0 19.592,-8.479 19.592,-20.954m-46.942,0.104l0,-0.2c0,-17.708 12.887,-28.192 25.879,-28.192c10.058,0 16.558,5.454 20.75,11.525l0,-32.692l8.062,0l0,76.487l-8.062,0l0,-10.896c-4.404,6.496 -10.792,12.054 -20.75,12.054c-12.992,0 -25.879,-10.271 -25.879,-28.087" style="fill:none;fill-rule:nonzero;"/><path d="M595.125,22.325l8.592,0l14.246,43.483l14.567,-43.696l6.704,0l14.667,43.696l14.25,-43.483l8.383,0l-19.067,54.592l-7.021,0l-14.567,-42.75l-14.667,42.75l-7.125,0l-18.962,-54.592Z" style="fill:none;fill-rule:nonzero;"/><path d="M723.698,56.585l0,-5.242c-3.979,-1.146 -9.325,-2.304 -15.925,-2.304c-10.167,0 -15.821,4.404 -15.821,11.217l0,0.204c0,6.808 6.287,10.792 13.617,10.792c9.958,0 18.129,-6.071 18.129,-14.667m-39.921,4.192l0,-0.212c0,-11.417 9.433,-17.496 23.158,-17.496c6.917,0 11.838,0.942 16.658,2.304l0,-1.883c0,-9.746 -5.975,-14.775 -16.133,-14.775c-6.396,0 -11.425,1.675 -16.454,3.979l-2.408,-6.6c5.975,-2.721 11.842,-4.5 19.7,-4.5c7.646,0 13.512,1.983 17.496,5.971c3.667,3.662 5.554,8.904 5.554,15.821l0,33.104l-7.754,0l0,-8.171c-3.775,4.925 -10.058,9.329 -19.596,9.329c-10.058,0 -20.221,-5.763 -20.221,-16.871" style="fill:none;fill-rule:nonzero;"/><path d="M748.543,22.325l8.067,0l0,14.146c3.983,-9.012 11.837,-15.512 22.108,-15.092l0,8.7l-0.629,0c-11.842,0 -21.479,8.479 -21.479,24.829l0,21.583l-8.067,0l0,-54.167Z" style="fill:none;fill-rule:nonzero;"/><path d="M832.58,49.457l0,-0.204c0,-12.467 -9.533,-20.85 -19.592,-20.85c-10.479,0 -19.071,7.75 -19.071,20.85l0,0.204c0,12.783 8.904,20.954 19.071,20.954c10.058,0 19.592,-8.479 19.592,-20.954m-46.942,0.104l0,-0.2c0,-17.708 12.887,-28.192 25.879,-28.192c10.058,0 16.558,5.454 20.75,11.525l0,-32.692l8.062,0l0,76.487l-8.062,0l0,-10.896c-4.404,6.496 -10.792,12.054 -20.75,12.054c-12.992,0 -25.879,-10.271 -25.879,-28.087" style="fill:none;fill-rule:nonzero;"/><path d="M853.861,69.574l4.087,-5.762c5.871,4.404 12.363,6.917 18.754,6.917c6.496,0 11.212,-3.35 11.212,-8.592l0,-0.204c0,-5.454 -6.392,-7.546 -13.517,-9.537c-8.488,-2.408 -17.917,-5.346 -17.917,-15.3l0,-0.212c0,-9.317 7.75,-15.5 18.442,-15.5c6.6,0 13.933,2.3 19.483,5.971l-3.663,6.079c-5.029,-3.254 -10.792,-5.242 -16.029,-5.242c-6.392,0 -10.483,3.354 -10.483,7.854l0,0.212c0,5.133 6.708,7.129 13.938,9.325c8.383,2.517 17.396,5.763 17.396,15.513l0,0.204c0,10.271 -8.487,16.242 -19.279,16.242c-7.754,0 -16.346,-3.033 -22.425,-7.967" style="fill:none;fill-rule:nonzero;"/></g></g></svg>