<?xml version="1.0" encoding="UTF-8" standalone="no"?><!DOCTYPE svg PUBLIC "-//W3C//DTD SVG 1.1//EN" "http://www.w3.org/Graphics/SVG/1.1/DTD/svg11.dtd"><svg width="100%" height="100%" viewBox="0 0 806 612" version="1.1" xmlns="http://www.w3.org/2000/svg" xmlns:xlink="http://www.w3.org/1999/xlink" xml:space="preserve" xmlns:serif="http://www.serif.com/" style="fill-rule:evenodd;clip-rule:evenodd;stroke-linejoin:round;stroke-miterlimit:2;"><rect id="Page-1" serif:id="Page 1" x="-1296.95" y="-548.618" width="3507.875" height="2480.317" style="fill:none;"/><g id="Layer-1" serif:id="Layer 1"><path d="M251.642,466.275c-21.133,29.812 -27.746,38.408 -44.408,54.579c-21.279,18.504 -44.404,29.604 -67.533,29.604c-26.829,0 -49.958,-19.421 -49.958,-59.208c0,-39.779 19.425,-85.113 43.479,-118.421c38.858,-55.508 95.292,-99.917 136,-99.917c16.65,0 28.679,12.954 28.679,38.858c0,52.738 -18.504,109.167 -46.258,154.504m438.504,-195.212c15.729,0 26.829,6.483 26.829,18.504c0,44.408 -65.687,86.962 -164.675,107.317c29.604,-74.933 93.438,-125.821 137.846,-125.821m115.642,23.133c0,-50.887 -40.704,-79.562 -111.017,-79.562c-96.121,0 -225.442,92.142 -249.517,222.5c-35.05,51.767 -71.771,73.55 -108.5,73.55c-8.325,0 -15.725,0 -22.204,-1.85c46.258,-55.512 76.788,-126.75 76.788,-191.513c0,-65.679 -42.554,-102.688 -105.467,-102.688c-49.033,0 -98.992,28.675 -145.246,75.863c19.425,-49.958 41.629,-102.696 60.133,-143.404c37.929,-62.908 51.808,-97.133 51.808,-117.488c0,-16.654 -12.95,-29.604 -33.304,-29.604c-20.354,0 -45.333,12.95 -58.288,42.554c-18.5,43.479 -110.092,265.517 -125.817,307.15c-20.354,51.808 -35.158,96.217 -35.158,142.475c0,74.933 57.358,118.421 132.296,118.421c46.258,0 92.517,-20.354 133.225,-52.738c18.5,4.629 39.779,7.4 61.983,7.4c43.517,0 83.488,-13.229 119.779,-40.396c16.546,56.446 66.913,86.654 143.871,86.654c98.992,0 173.929,-65.683 173.929,-98.067c0,-20.354 -14.804,-34.229 -34.229,-34.229c-12.954,0 -24.979,8.325 -39.783,25.908c-23.129,26.825 -51.808,43.475 -86.963,43.475c-38.858,0 -67.538,-24.975 -67.538,-71.233c0,-7.4 0,-14.8 0.925,-21.279c152.65,-22.204 268.292,-90.667 268.292,-161.9" style="fill:currentColor;fill-rule:nonzero;"/></g></svg>